HIERARCHY
ROOT Hips
{
  OFFSET 0.000000 0.000000 0.000000
  CHANNELS 6 Xposition Yposition Zposition Zrotation Xrotation Yrotation
  JOINT LeftUpLeg
  {
    OFFSET 0.064875 -0.100660 -0.015030
    CHANNELS 3 Zrotation Xrotation Yrotation
    JOINT LeftLeg
    {
      OFFSET 0.067832 -0.329465 0.043272
      CHANNELS 3 Zrotation Xrotation Yrotation
      JOINT LeftFoot
      {
        OFFSET -0.045467 -0.388614 -0.104506
        CHANNELS 3 Zrotation Xrotation Yrotation
        JOINT LeftToeBase
        {
          OFFSET 0.058512 -0.060197 0.116994
          CHANNELS 3 Zrotation Xrotation Yrotation
          End Site
          {
            OFFSET 0 0 0.1
          }
        }
      }
    }
  }
  JOINT RightUpLeg
  {
    OFFSET -0.069617 -0.123531 -0.011293
    CHANNELS 3 Zrotation Xrotation Yrotation
    JOINT RightLeg
    {
      OFFSET -0.046247 -0.308933 0.068340
      CHANNELS 3 Zrotation Xrotation Yrotation
      JOINT RightFoot
      {
        OFFSET 0.019223 -0.402860 -0.098409
        CHANNELS 3 Zrotation Xrotation Yrotation
        JOINT RightToeBase
        {
          OFFSET -0.024692 -0.055429 0.114544
          CHANNELS 3 Zrotation Xrotation Yrotation
          End Site
          {
            OFFSET 0 0 0.1
          }
        }
      }
    }
  }
  JOINT Spine
  {
    OFFSET 0.001381 0.079355 -0.033058
    CHANNELS 3 Zrotation Xrotation Yrotation
    JOINT Spine1
    {
      OFFSET 0.015717 0.137630 0.048978
      CHANNELS 3 Zrotation Xrotation Yrotation
      JOINT Spine2
      {
        OFFSET 0.003861 0.078964 0.012353
        CHANNELS 3 Zrotation Xrotation Yrotation
        JOINT Neck
        {
          OFFSET 0.003768 0.177824 0.007291
          CHANNELS 3 Zrotation Xrotation Yrotation
          JOINT RightArm
          {
            OFFSET 0.008087 0.045651 0.069263
            CHANNELS 3 Zrotation Xrotation Yrotation
            End Site
            {
              OFFSET 0 0 0.1
            }
          }
        }
        JOINT RightShoulder
        {
          OFFSET 0.069818 0.094121 -0.000772
          CHANNELS 3 Zrotation Xrotation Yrotation
          JOINT LeftArm
          {
            OFFSET 0.110596 -0.004363 -0.015577
            CHANNELS 3 Zrotation Xrotation Yrotation
            JOINT LeftForeArm
            {
              OFFSET 0.048698 -0.219044 0.005263
              CHANNELS 3 Zrotation Xrotation Yrotation
              JOINT LeftHand
              {
                OFFSET -0.025130 -0.152294 0.100658
                CHANNELS 3 Zrotation Xrotation Yrotation
                End Site
                {
                  OFFSET 0 0 0.1
                }
              }
            }
          }
        }
        JOINT LeftShoulder
        {
          OFFSET -0.074634 0.112176 0.010152
          CHANNELS 3 Zrotation Xrotation Yrotation
          JOINT RightForeArm
          {
            OFFSET -0.110278 -0.001623 -0.001839
            CHANNELS 3 Zrotation Xrotation Yrotation
            JOINT RightHand
            {
              OFFSET -0.094224 -0.217340 -0.025637
              CHANNELS 3 Zrotation Xrotation Yrotation
              JOINT LeftHandEnd
              {
                OFFSET 0.035623 -0.136451 0.134990
                CHANNELS 3 Zrotation Xrotation Yrotation
                End Site
                {
                  OFFSET 0 0 0.1
                }
              }
            }
          }
        }
      }
    }
  }
}
MOTION
Frames: 17
Frame Time: 0.05000000
0.236352 0.943555 0.745623 -0.000000 0.000000 -56.780001 -21.423037 -61.893132 88.200958 76.670811 -22.616519 -27.058182 -28.907511 0.602199 -0.990835 -3.385253 19.836500 76.503006 34.621577 57.626005 64.146098 -64.124545 -2.968505 -19.336956 -14.676419 24.875702 4.075576 0.570534 14.646802 38.392545 22.621382 6.699319 55.438577 -38.394731 19.225373 8.305866 9.938124 -2.802469 0.319010 6.860568 -3.414873 0.146031 21.232791 -33.555852 59.204123 21.746573 55.583862 83.171640 41.571217 34.118643 -82.153774 -75.761013 -60.575900 -51.487280 6.149637 -3.943064 0.490829 -24.190553 -60.082376 82.555150 -29.930047 -17.452446 -63.713833 55.311272 55.705529 -19.488036 24.942028 -0.318072 -0.293933
0.241210 0.939680 0.749258 -0.000000 0.000000 -57.303542 -19.812557 -62.140975 90.368748 76.759123 -23.151742 -27.437258 -29.355573 0.472081 -1.022629 -3.431375 20.033483 77.164933 33.741871 58.080831 65.409447 -64.206417 -2.864225 -19.610433 -15.069482 25.109631 4.225904 0.928273 14.247025 38.370730 23.025476 7.172064 55.840878 -38.598435 19.023839 8.317068 9.002275 -2.330220 0.259172 7.716931 -3.383656 0.181055 21.626373 -33.754515 60.488419 20.722814 55.979777 84.728487 41.113918 35.679269 -83.874600 -78.570746 -60.207377 -55.617550 2.929298 3.692632 0.140983 -23.421806 -60.342946 83.447490 -28.411667 -17.795062 -63.168785 56.769594 57.914036 -20.391246 16.462931 -0.002061 0.294941
0.240883 0.943833 0.751829 -0.000000 0.000000 -57.827125 -19.132691 -62.569855 91.169869 76.760352 -22.976961 -27.432467 -28.699460 -0.125681 -1.088664 -3.865397 20.317983 78.088958 32.534532 58.343698 66.979093 -63.740335 -2.389533 -19.983922 -15.302363 24.242405 4.124257 0.680027 14.576665 39.831088 22.081445 7.584638 56.345143 -39.022633 18.255742 8.091615 9.838433 -3.014075 0.250543 6.982377 -2.298232 0.121484 22.057990 -33.569470 60.596570 20.728074 56.545938 84.612736 41.807472 32.331224 -81.193084 -67.677898 -63.103461 -42.686673 13.678785 -24.166792 5.037040 -21.450141 -60.870401 86.436373 -32.188982 -19.175564 -68.191896 52.056533 54.624262 -19.529441 45.969256 -1.545562 -2.527216
0.244471 0.946766 0.769790 -0.000000 0.000000 -58.350732 -18.495064 -63.292685 92.053185 77.189750 -22.342366 -27.434279 -28.188327 -0.651183 -1.290882 -5.156750 21.409248 79.086011 31.132822 58.770286 69.007200 -63.368117 -1.746534 -20.629679 -15.385867 23.879392 4.008458 0.040429 15.370048 40.556889 21.509067 7.510087 56.922309 -38.981520 18.713133 8.161118 10.410837 -3.444701 0.315632 6.101627 -2.506034 0.096559 22.465120 -33.672678 59.772615 19.127761 56.511408 86.837024 40.612445 30.235533 -78.934019 -58.113092 -60.889749 -32.918784 18.848294 -35.900578 10.713731 -19.617646 -61.078083 88.982850 -35.111461 -20.124947 -71.914506 47.968419 52.132113 -18.475164 60.299967 -5.780599 -5.514258
0.251407 0.943834 0.768969 -0.000000 0.000000 -58.874326 -16.890927 -63.347243 94.063337 77.091095 -23.250893 -27.689926 -28.658155 -0.619183 -1.181147 -4.148752 20.645781 79.192108 30.767662 59.164446 69.407841 -63.606615 -2.092335 -20.436203 -15.791033 23.757401 4.156196 0.460792 15.145105 41.081634 21.674303 8.179161 57.306003 -39.299542 17.673882 7.952180 10.739346 -2.922777 0.294456 6.170430 -2.202678 0.090824 22.724008 -33.609908 61.536590 18.564443 56.900067 87.554666 42.397879 32.126652 -82.210603 -63.973570 -63.201039 -39.849000 15.635895 -27.449722 6.626707 -18.879702 -61.547440 89.926112 -33.482171 -19.421090 -70.451104 50.587245 54.752276 -19.300883 50.004939 -2.150029 -3.526607
0.259370 0.956340 0.788722 -0.000000 0.000000 -59.397912 -16.420013 -64.035944 94.616478 77.434938 -22.443225 -27.573698 -28.075519 -0.974971 -1.348384 -5.762534 22.203780 79.742002 29.539017 59.533957 71.106377 -63.650711 -1.160812 -20.846653 -15.689164 23.450992 4.065907 -0.117584 16.321257 41.850430 20.665954 8.331569 57.876263 -38.564969 16.977605 7.465595 8.889238 -2.851654 0.160886 7.480185 -2.084992 0.114274 23.089997 -33.911755 60.911484 17.808273 57.761917 88.889826 41.825465 31.529721 -82.243528 -59.379018 -62.670980 -35.497528 18.336231 -34.054659 9.757818 -17.559532 -61.879410 91.705385 -35.577377 -20.468840 -73.419576 48.839855 53.108582 -19.680165 60.080465 -4.408453 -6.022426
0.254735 0.935539 0.796017 -0.000000 0.000000 -59.921451 -14.355632 -63.757370 97.184174 77.244170 -23.054206 -28.027112 -28.615759 -1.225270 -1.398991 -3.889619 20.260861 79.910008 28.877681 60.153569 72.139665 -63.963769 -1.971290 -21.008928 -15.821274 23.737348 4.166793 0.558311 14.644832 41.382025 22.353768 9.241695 58.091607 -40.453761 17.647502 8.210476 11.786753 -2.646863 0.363813 5.847209 -2.782789 0.088075 22.264863 -32.855801 62.470150 15.763299 57.155332 91.559621 43.862473 34.719522 -87.162134 -68.868469 -64.299999 -47.782296 9.603441 -8.662930 1.514164 -17.216034 -62.285875 91.950089 -31.052088 -18.485527 -68.420679 50.774340 55.956378 -18.134686 30.339484 -0.787364 -1.393606
0.257838 0.941324 0.801626 -0.000000 0.000000 -60.444911 -13.332472 -64.117006 98.413671 77.620345 -23.092996 -27.961195 -28.833428 -1.580649 -1.486610 -4.401675 20.922991 80.755876 27.993389 60.469677 73.243777 -63.647334 -1.903324 -21.143759 -16.306261 23.571348 4.219736 0.274306 15.097776 42.358778 21.241880 9.297338 58.697746 -39.456631 16.903810 7.645502 10.659770 -2.666989 0.276960 6.667851 -2.430412 0.101712 22.766532 -33.312468 62.946345 15.302234 57.937777 92.275547 42.586289 33.556290 -85.571410 -65.532887 -65.137658 -43.397064 13.501556 -21.288847 4.307685 -15.966045 -62.508840 93.533570 -32.848208 -20.546290 -71.788379 50.035554 55.499900 -19.690004 45.844802 -0.500419 -3.614558
0.269904 0.952424 0.815787 -0.000000 0.000000 -60.968296 -12.651789 -64.943728 99.267981 77.951592 -22.555276 -27.919190 -28.102107 -1.852086 -1.578493 -6.117676 22.477560 81.457281 26.564772 60.767032 75.169407 -63.528675 -0.897408 -21.623583 -16.346325 23.044930 4.121645 -0.378586 16.565377 43.358073 20.332650 9.227952 59.310052 -39.079428 16.516211 7.391263 10.055639 -2.753466 0.230303 6.629196 -2.229882 0.086787 23.541331 -33.659810 62.159874 14.193596 58.254384 93.841967 42.117227 31.855496 -84.209729 -56.204427 -63.101834 -33.863660 19.447520 -34.011504 10.234341 -13.819415 -62.730164 96.543474 -36.314276 -21.087771 -75.910521 46.995486 53.397584 -19.343066 61.055797 -4.360071 -7.150349
0.272970 0.952930 0.818740 -0.000000 0.000000 -61.491571 -11.706443 -65.398515 100.362756 78.501689 -22.360791 -27.754721 -28.308274 -2.204796 -1.712481 -6.314913 22.674126 82.171955 25.725337 61.226703 76.304733 -63.208148 -1.118936 -21.808248 -16.673195 22.885326 4.096307 -1.008297 17.132487 44.138749 19.588756 8.968605 59.940259 -38.435090 16.758393 7.267923 11.184252 -3.027335 0.337011 5.627505 -2.746872 0.064267 23.620258 -33.778249 61.956209 12.628850 58.125105 95.986044 41.040881 30.795899 -82.913960 -53.395982 -61.791149 -30.850380 21.787369 -38.324380 12.738338 -12.385148 -62.810009 98.353365 -38.104392 -21.927709 -78.387275 45.509056 52.526199 -19.539780 66.216229 -5.414977 -9.405049
0.296111 0.952256 0.816002 -0.000000 0.000000 -62.014718 -9.600622 -65.396339 103.079282 78.174673 -22.931910 -28.355309 -28.194166 -2.263584 -1.686159 -6.577691 22.839466 82.622547 24.465288 61.488880 77.932149 -63.652073 -0.469067 -22.062259 -16.804245 22.925916 4.224056 -0.132884 16.367335 44.093579 20.236715 10.225072 60.185272 -39.384769 15.663162 7.139741 8.874926 -2.474343 0.129908 7.741432 -1.780560 0.101677 24.004155 -33.700305 63.653015 12.424034 59.145488 96.268377 42.188906 33.178303 -86.444548 -57.897947 -64.903948 -36.642504 17.454029 -30.352032 8.042282 -11.738791 -63.328306 99.059067 -35.149203 -22.056204 -76.481344 46.697785 55.439674 -19.305394 56.918854 -1.719559 -6.425627
0.290698 0.954726 0.820552 -0.000000 0.000000 -62.537728 -8.481327 -66.081154 104.454695 78.538503 -22.100684 -28.441523 -27.344102 -2.725850 -1.890485 -8.034697 23.570238 83.681126 22.873704 61.857373 80.148489 -63.254593 0.143526 -22.704215 -16.839961 22.654623 4.077785 -0.843824 16.789311 44.849926 19.778180 10.253372 60.745601 -39.667420 16.390969 7.308649 9.876387 -3.239350 0.199739 6.539423 -1.940178 0.076440 24.112430 -33.572668 62.492659 11.019448 58.982317 98.104432 40.221378 30.562419 -82.766324 -48.398169 -62.304005 -26.050089 26.934008 -41.316509 17.186863 -9.847523 -63.416759 101.586001 -37.516949 -23.213828 -80.130496 41.141838 53.377456 -16.771594 68.467946 -4.614474 -10.386089
0.289906 0.945075 0.800360 -0.000000 0.000000 -63.060577 -6.634268 -65.807843 106.701798 78.438138 -23.095151 -28.690077 -28.055031 -2.786095 -1.818402 -6.335915 22.257006 83.746606 22.439847 62.267588 80.579252 -63.481681 -0.566521 -22.459842 -17.261852 22.609123 4.233703 -0.210700 16.001701 45.098953 20.363169 11.090782 61.062670 -40.417364 15.639539 7.310948 11.140374 -2.468203 0.266950 6.051419 -2.102806 0.067289 24.018612 -33.223979 64.526427 9.982686 58.941979 99.368416 42.611144 33.257783 -87.201773 -56.286943 -65.848887 -35.662125 19.487746 -28.464830 8.373887 -9.129915 -63.819933 102.325923 -34.608444 -21.957704 -76.859916 44.316575 56.477865 -17.224128 53.469125 -0.466515 -6.034970
0.295850 0.954306 0.800389 -0.000000 0.000000 -63.583254 -6.102647 -66.156844 107.059579 78.573211 -22.547388 -28.386753 -27.627116 -3.546802 -1.935071 -7.605947 23.672236 84.790549 20.499322 62.280539 83.094124 -63.062581 0.294379 -23.134250 -17.254944 21.840391 4.084287 -0.733839 16.948575 46.310761 18.686255 10.769464 61.806271 -39.650089 14.637117 6.731807 9.788157 -3.096742 0.108025 7.055338 -0.903383 0.067524 24.714310 -33.361729 64.435284 9.378953 60.094265 100.274075 42.332549 29.691121 -84.587713 -40.626735 -63.523205 -18.607827 37.978040 -48.500389 29.382995 -6.666160 -63.948990 105.756881 -40.532584 -24.178946 -84.850830 41.093375 51.048456 -19.348251 77.918169 -6.252316 -15.866643
0.299530 0.949189 0.814499 -0.000000 0.000000 -64.105741 -4.073128 -66.276346 109.658718 78.855256 -23.044810 -28.711668 -28.146014 -3.416743 -1.974442 -7.010646 23.116878 84.838555 19.974372 62.862741 83.746929 -63.430624 -0.114897 -22.992084 -17.602972 22.228899 4.240372 -0.556239 16.719642 46.229756 19.348144 11.343796 62.165835 -39.796173 14.730904 6.840291 10.247108 -2.354802 0.187302 6.805606 -1.827752 0.070891 24.635586 -33.427372 65.387155 7.610636 59.741369 102.682612 42.592341 33.115294 -88.494784 -52.076996 -65.858748 -32.263788 21.636695 -33.608340 10.957402 -6.237213 -64.206313 105.967580 -36.603139 -23.219140 -80.454515 43.774539 55.324776 -18.811973 61.960913 -1.547127 -9.051391
0.305838 0.946770 0.817987 -0.000000 0.000000 -64.628028 -2.246689 -66.354040 111.936251 78.950052 -23.278920 -29.011817 -28.279550 -3.512243 -2.032133 -7.081795 23.120786 85.247524 18.875207 63.261799 85.167144 -63.715422 0.013691 -23.152234 -17.765392 22.353776 4.320629 -0.315529 16.470225 46.289690 19.691000 12.054250 62.528519 -40.170844 14.458492 6.829983 9.662771 -1.986833 0.158716 7.449133 -1.920127 0.084195 24.702930 -33.390851 66.292895 6.305976 59.955296 104.461891 42.989766 35.244970 -91.385946 -58.067610 -67.077833 -39.910308 14.280681 -21.967128 4.649886 -5.448952 -64.485798 106.743361 -34.318746 -23.091215 -78.559892 44.615435 57.759688 -18.344336 49.148083 0.703375 -5.634426
0.303825 0.964149 0.816354 -0.000000 0.000000 -65.150105 -2.187519 -67.421725 111.571693 79.352284 -21.578799 -28.463836 -26.573732 -4.564305 -2.244903 -10.252801 25.442457 87.125828 16.330421 63.084452 88.536005 -62.610177 1.509711 -24.259302 -17.581918 21.068895 3.910796 -1.949116 18.257801 48.498849 17.098158 11.010416 63.489950 -39.377816 14.301712 6.373037 9.848456 -3.834420 0.073437 6.539549 -0.650960 0.053792 25.483873 -33.383268 63.811124 5.776017 60.710792 105.003275 40.260719 26.574454 -81.468473 -30.575240 -58.236788 -8.287312 53.031159 -53.466083 47.711762 -1.609502 -64.242996 112.286526 -45.384470 -26.157217 -92.894474 34.344257 48.821871 -17.521629 84.357325 -8.584205 -24.139845
